# xmcd
#
# Track frame offsets:
#	150
#	874
#	19520
#	33154
#	52818
#	62917
#	76350
#	93022
#	110022
#	123007
#	141879
#	156221
#	175043
#	187955
#	190279
#	202316
#	212196
#	230239
#	248811
#	266451
#	281997
#	298557
#	312763
#	328778
#	346934
#	347861
#	348749
#	349575
#	350463
#
# Disc length: 4793 seconds
#
# Revision: 1
# Processed by: cddbd v1.5.2PL0 Copyright (c) Steve Scherf et al.
# Submitted via: audiograbber 1.83.01
#
DISCID=b112b71d
DTITLE=Country Hotdisc - Country Hotdisc 062
DYEAR=2004
DGENRE=
TTITLE0=Intro - Intro
TTITLE1=She Belives In Me - Ronan Keating
TTITLE2=I Think About Your Lovin´  - Osmond Brothers
TTITLE3=Sound Of The Rain  - Randy Thompson
TTITLE4=Sad City  - Troy Cook Jr
TTITLE5=No Tomorrow  - Lisa O´kane
TTITLE6=Love Goes Without Saying Goodbye  - Denny Reed
TTITLE7=Steady As The Rain  - The Larkins With Dolly Parton
TTITLE8=1993  - Mike Harwell
TTITLE9=Watch The Wind Blow By  - Tim Mcgraw
TTITLE10=I´m Still Falling  - Slow Horses
TTITLE11=My Secret Love  - D K Davis
TTITLE12=Love Don´t Even Know My Name - Jessica Phillips 
TTITLE13=Soundbite And Id´s - Jessica Phillips 
TTITLE14=Dog On The Dash  - Karree J Phillips
TTITLE15=What Do I Care  - Clint Miller
TTITLE16=If I Were An Angel - Crissy Cummings
TTITLE17=Just When I Need You Most  - Hermann Lammer Meyer and Lois Johnson
TTITLE18=When A Woman´s In Love  - Lee Greenwood
TTITLE19=If You Want Me  - Janey Kirk
TTITLE20=You´ll Still Be Here Tommorow  - Bill Steward
TTITLE21=Loco  - David Lee Murphy
TTITLE22=I´m Late  - Laura Gauthier
TTITLE23=Heaven Help Me  - Wynonna
TTITLE24=Soundbite And Id´s - Karree Phillips
TTITLE25=Soundbite And Id´s - Karree Phillips
TTITLE26=Soundbite And Id´s - Karree Phillips
TTITLE27=Soundbite And Id´s - Hermann Lammers Meyer
TTITLE28=Soundbite And Id´s - Palle Ib
EXTD=
EXTT0=
EXTT1=
EXTT2=
EXTT3=
EXTT4=
EXTT5=
EXTT6=
EXTT7=
EXTT8=
EXTT9=
EXTT10=
EXTT11=
EXTT12=
EXTT13=
EXTT14=
EXTT15=
EXTT16=
EXTT17=
EXTT18=
EXTT19=
EXTT20=
EXTT21=
EXTT22=
EXTT23=
EXTT24=
EXTT25=
EXTT26=
EXTT27=
EXTT28=
PLAYORDER=
